<?xml version="1.0" standalone="no"?>
<!DOCTYPE svg PUBLIC "-//W3C//DTD SVG 20010904//EN"
 "http://www.w3.org/TR/2001/REC-SVG-20010904/DTD/svg10.dtd">
<svg version="1.0" xmlns="http://www.w3.org/2000/svg"
 width="800.000000pt" height="800.000000pt" viewBox="0 0 800.000000 800.000000"
 preserveAspectRatio="xMidYMid meet">
<metadata>
Created by potrace 1.14, written by Peter Selinger 2001-2017
</metadata>
<g transform="translate(0.000000,800.000000) scale(0.100000,-0.100000)"
fill="#000000" stroke="none">
<path d="M5490 6438 c0 -9 -5 -20 -12 -24 -7 -5 -8 -3 -3 6 5 9 4 11 -4 6 -6
-4 -9 -12 -5 -17 3 -5 0 -17 -8 -26 -11 -14 -11 -16 2 -9 13 6 13 5 0 -6 -9
-7 -14 -21 -12 -30 2 -12 -3 -18 -15 -18 -17 -1 -17 -1 1 -11 10 -6 14 -14 10
-18 -18 -13 -34 -50 -24 -56 13 -8 13 -25 -1 -25 -5 0 -7 5 -3 12 4 7 3 8 -5
4 -6 -4 -9 -12 -6 -17 4 -5 1 -9 -5 -9 -7 0 -5 -7 4 -16 20 -20 21 -30 1 -14
-13 11 -14 10 -9 -4 4 -9 1 -16 -6 -16 -9 0 -9 -4 1 -17 10 -11 10 -14 2 -9
-13 7 -18 -10 -14 -43 2 -7 -2 -10 -7 -7 -6 4 -8 -3 -4 -16 3 -14 2 -19 -6
-14 -7 4 -12 3 -12 -3 0 -5 6 -12 13 -14 10 -4 10 -6 0 -6 -7 -1 -13 -8 -13
-17 0 -8 -5 -12 -11 -8 -8 4 -8 0 0 -15 14 -25 7 -41 -17 -41 -13 0 -13 -2 3
-14 18 -13 18 -13 -1 -24 -10 -6 -18 -13 -16 -16 5 -13 2 -27 -6 -22 -4 2 -8
-4 -8 -14 0 -15 3 -17 15 -7 12 10 12 9 1 -10 -8 -12 -19 -19 -25 -15 -5 3 -4
-1 3 -10 11 -14 10 -18 -5 -27 -11 -6 -13 -11 -5 -11 7 0 10 -5 7 -10 -4 -6
-10 -8 -14 -6 -4 3 -8 -1 -8 -9 0 -8 3 -12 7 -10 3 2 6 -5 6 -15 0 -10 -5 -16
-12 -13 -7 2 -11 -5 -10 -19 1 -13 -2 -26 -7 -29 -9 -6 -15 -30 -16 -62 -1
-12 -6 -16 -13 -11 -10 6 -10 4 0 -7 17 -19 15 -32 -4 -25 -14 5 -15 4 -4 -9
9 -11 9 -15 1 -15 -7 0 -9 -4 -6 -10 3 -5 0 -10 -7 -10 -9 0 -9 -3 2 -10 10
-7 11 -10 2 -10 -8 0 -11 -9 -8 -26 3 -16 0 -27 -10 -31 -8 -3 -14 -12 -14
-20 0 -8 5 -11 13 -8 6 4 4 0 -6 -8 -10 -9 -18 -18 -18 -21 3 -21 0 -26 -10
-20 -8 4 -8 0 0 -15 11 -20 8 -26 -13 -22 -5 1 -4 -5 4 -13 10 -13 10 -16 0
-16 -8 0 -11 -9 -7 -25 2 -14 2 -23 -1 -20 -3 2 -12 -1 -21 -7 -9 -7 -13 -8
-9 -4 4 5 -1 17 -13 27 -14 12 -16 18 -7 22 8 3 6 6 -6 6 -10 1 -16 6 -13 14
6 15 -18 39 -29 29 -5 -4 -2 2 6 12 10 13 10 17 3 12 -8 -4 -13 -2 -13 4 0 6
-6 8 -12 4 -7 -4 -10 -4 -6 1 4 4 2 17 -4 29 -7 11 -11 25 -10 30 2 5 -4 4
-12 -4 -14 -10 -16 -10 -17 6 -1 11 -1 22 0 26 0 5 -5 7 -12 5 -6 -1 -11 6 -9
15 2 12 -3 16 -19 13 -18 -4 -19 -2 -8 11 10 12 10 15 -2 12 -8 -2 -13 3 -11
11 3 12 0 12 -13 1 -13 -11 -15 -10 -9 6 4 10 4 16 -1 12 -9 -8 -35 15 -35 32
0 6 -4 8 -10 5 -5 -3 -10 1 -10 10 0 9 -4 13 -10 10 -5 -3 -10 -1 -10 4 0 6
-4 11 -10 11 -14 0 -50 37 -50 51 0 8 -4 8 -12 1 -15 -11 -42 10 -30 24 4 4 1
4 -6 0 -7 -4 -15 -1 -18 9 -5 12 -9 13 -20 4 -11 -9 -14 -8 -14 3 0 17 -47 41
-61 32 -6 -3 -13 4 -16 16 -4 16 -8 18 -14 8 -7 -10 -9 -10 -9 2 0 13 -1 13
-10 0 -8 -13 -10 -12 -10 4 0 13 -5 17 -20 13 -11 -3 -18 -1 -14 4 3 5 -4 9
-15 9 -12 0 -21 6 -21 13 0 8 -4 7 -10 -3 -9 -13 -10 -13 -10 0 0 13 -1 13
-10 0 -9 -13 -10 -13 -11 0 -1 8 -1 19 0 23 1 5 -4 5 -11 1 -24 -15 -40 -13
-34 3 6 14 4 14 -11 2 -15 -12 -16 -12 -10 6 6 17 5 18 -5 4 -14 -18 -42 -14
-31 4 4 8 1 7 -9 -1 -13 -10 -17 -10 -21 0 -4 10 -8 10 -16 -2 -8 -12 -11 -12
-11 -1 0 9 -8 12 -24 9 -19 -4 -23 -1 -18 11 5 14 3 14 -10 3 -12 -9 -18 -10
-23 -2 -5 8 -11 8 -21 -1 -10 -8 -14 -8 -14 0 0 7 -15 10 -45 7 -25 -2 -43 -1
-40 3 2 4 -2 8 -10 8 -8 0 -12 -4 -9 -9 3 -4 1 -8 -5 -8 -5 0 -12 8 -14 18 -4
15 -5 15 -6 -2 -1 -15 -4 -16 -16 -6 -9 7 -15 8 -15 2 0 -15 -33 -9 -47 8 -10
13 -12 13 -18 -2 -6 -14 -11 -16 -27 -7 -12 7 -18 7 -14 1 3 -5 -1 -13 -10
-16 -8 -3 -12 -2 -9 4 3 5 -10 8 -30 7 -19 -1 -35 -6 -35 -12 0 -5 -4 -4 -9 4
-6 9 -11 10 -15 2 -5 -8 -13 -8 -28 0 -17 9 -20 9 -15 -3 5 -15 -26 -19 -39
-5 -4 4 -12 -1 -19 -10 -9 -13 -14 -13 -20 -3 -6 9 -4 11 5 5 9 -6 11 -4 5 5
-6 10 -11 9 -22 -5 -9 -14 -13 -15 -13 -4 0 12 -2 12 -10 -1 -5 -8 -10 -11
-10 -7 0 4 -9 3 -19 -3 -14 -7 -22 -7 -26 0 -5 8 -11 8 -19 1 -7 -6 -17 -7
-22 -3 -4 4 -2 -2 6 -12 9 -12 10 -17 3 -12 -19 11 -54 16 -48 7 3 -5 -2 -11
-10 -15 -8 -3 -17 -1 -20 4 -3 5 -12 7 -20 4 -8 -4 -13 -10 -10 -14 3 -5 -13
-7 -35 -6 -31 2 -37 0 -29 -10 8 -9 5 -11 -10 -7 -13 3 -21 1 -21 -6 0 -7 -4
-9 -10 -6 -5 3 -10 1 -10 -4 0 -6 -4 -11 -10 -11 -5 0 -8 6 -6 13 1 6 1 9 -1
4 -3 -4 -9 -5 -14 -2 -5 4 -6 -2 -2 -12 6 -16 5 -17 -13 -3 -10 8 -16 11 -12
6 11 -13 -33 -43 -59 -40 -14 1 -21 -2 -16 -9 4 -6 0 -8 -10 -4 -9 3 -16 2
-14 -2 1 -5 -2 -9 -7 -9 -5 0 -13 -7 -18 -16 -5 -9 -19 -21 -31 -26 -20 -10
-20 -10 -4 3 9 8 17 18 17 23 0 5 -16 -8 -35 -29 -20 -22 -40 -35 -47 -31 -7
4 -8 3 -4 -4 4 -7 3 -12 -3 -12 -6 0 -19 -10 -30 -21 -12 -13 -26 -19 -36 -15
-9 3 -14 2 -10 -3 7 -12 -5 -42 -15 -36 -13 8 -32 -23 -24 -37 5 -8 1 -8 -11
2 -15 12 -17 12 -10 1 6 -11 4 -13 -9 -8 -9 4 -15 3 -12 -2 3 -4 -5 -19 -17
-32 -12 -13 -21 -28 -19 -33 2 -4 -4 -6 -12 -3 -10 4 -13 1 -9 -9 3 -7 0 -14
-7 -14 -6 0 -8 -4 -5 -10 4 -6 -1 -7 -11 -3 -14 5 -16 2 -11 -16 5 -19 3 -20
-11 -9 -13 11 -15 11 -10 -3 4 -10 -3 -23 -18 -34 -15 -11 -22 -24 -19 -33 4
-12 3 -13 -10 -2 -13 11 -14 10 -9 -4 3 -9 1 -16 -5 -16 -6 0 -11 -7 -11 -16
0 -9 -5 -12 -12 -8 -8 5 -7 0 2 -11 9 -11 10 -16 3 -11 -8 4 -13 2 -13 -4 0
-6 -4 -8 -10 -5 -6 3 -7 -1 -4 -9 3 -9 1 -16 -5 -16 -6 0 -11 -7 -11 -16 0 -9
-5 -12 -12 -8 -7 4 -10 4 -6 -1 11 -12 -11 -47 -25 -38 -8 5 -8 2 1 -9 10 -13
10 -17 -3 -22 -8 -3 -15 -12 -15 -20 0 -7 -7 -17 -16 -20 -14 -5 -14 -9 -3
-23 10 -12 10 -14 1 -9 -7 4 -12 2 -12 -4 0 -6 -4 -9 -9 -6 -4 3 -7 -6 -5 -19
1 -14 -2 -25 -7 -25 -5 0 -9 -7 -9 -16 0 -9 -5 -12 -12 -8 -7 4 -10 4 -6 -1 4
-4 3 -14 -4 -22 -9 -11 -7 -12 8 -8 12 3 10 1 -4 -7 -15 -7 -22 -18 -19 -30 3
-10 0 -21 -5 -25 -7 -4 -8 -1 -3 7 5 9 4 11 -3 6 -9 -5 -9 -13 -2 -27 8 -14 8
-19 -2 -17 -6 2 -12 -1 -13 -7 0 -5 -4 -16 -9 -24 -7 -11 -6 -12 5 -6 12 7 12
6 1 -7 -10 -13 -10 -17 0 -21 9 -4 7 -6 -4 -6 -22 -1 -28 -33 -8 -49 13 -11
13 -11 -1 -6 -10 3 -19 -1 -23 -11 -3 -9 -2 -14 3 -11 5 3 11 -1 14 -9 4 -9 1
-12 -9 -8 -10 4 -12 0 -8 -11 3 -9 1 -16 -5 -16 -6 0 -11 -5 -11 -11 0 -5 6
-7 13 -3 7 5 7 1 -2 -10 -13 -15 -13 -19 0 -27 12 -7 11 -9 -3 -9 -9 0 -20 -5
-24 -12 -5 -8 -2 -9 11 -4 18 6 18 6 -1 -15 -11 -14 -13 -19 -4 -14 9 5 7 -1
-5 -15 -11 -13 -14 -20 -7 -16 10 6 11 2 7 -16 -4 -13 -7 -32 -9 -41 -1 -9 -6
-20 -11 -24 -4 -4 -5 -2 0 6 6 10 4 12 -5 6 -10 -6 -9 -11 5 -22 11 -7 13 -13
6 -13 -7 0 -9 -5 -5 -12 5 -8 1 -9 -12 -5 -18 7 -18 6 -1 -7 17 -13 17 -14 0
-20 -14 -6 -15 -9 -4 -15 7 -5 9 -11 4 -14 -6 -4 -10 -20 -11 -37 0 -17 -7
-39 -14 -48 -9 -12 -10 -14 0 -8 6 4 12 2 12 -3 0 -6 -5 -11 -11 -11 -8 0 -7
-6 2 -17 12 -14 12 -16 0 -8 -11 6 -13 4 -8 -8 3 -10 2 -17 -4 -17 -6 0 -5 -8
2 -21 6 -12 7 -19 1 -15 -5 3 -12 -1 -16 -9 -3 -8 -1 -17 5 -21 7 -4 7 -10 0
-18 -7 -9 -7 -17 2 -26 8 -9 9 -11 0 -6 -6 3 -14 2 -18 -4 -3 -5 -2 -10 4 -10
6 0 8 -7 5 -15 -4 -8 -11 -12 -18 -8 -7 4 -7 2 1 -8 10 -12 10 -18 0 -28 -9
-10 -8 -11 8 -5 17 7 18 6 5 -8 -8 -9 -18 -14 -21 -12 -3 2 -6 -3 -6 -11 0 -8
4 -12 9 -9 4 3 8 0 8 -5 0 -6 -4 -11 -9 -11 -4 0 -7 -18 -6 -40 1 -22 -1 -43
-6 -46 -4 -2 -5 -12 -2 -21 5 -12 3 -14 -8 -8 -11 6 -12 5 -2 -5 10 -11 9 -18
-5 -34 -12 -14 -13 -17 -2 -11 13 7 13 6 2 -7 -10 -13 -10 -17 0 -21 9 -4 7
-6 -4 -6 -9 -1 -20 -6 -24 -13 -4 -7 -3 -8 4 -4 7 4 12 3 12 -3 0 -5 -5 -13
-10 -16 -7 -4 -7 -13 0 -26 8 -15 7 -21 -4 -25 -9 -3 -12 -12 -9 -21 4 -9 2
-14 -3 -10 -6 3 -11 -3 -11 -14 -1 -12 3 -17 9 -13 7 4 8 2 4 -4 -4 -7 -15
-12 -24 -13 -11 0 -13 -2 -4 -6 10 -4 10 -8 0 -21 -11 -13 -11 -15 2 -8 10 5
10 3 -2 -6 -12 -10 -14 -18 -6 -31 7 -13 6 -17 -4 -15 -7 2 -13 -6 -13 -17 0
-11 -7 -26 -15 -33 -8 -8 -9 -11 -3 -7 22 11 14 -13 -9 -31 -16 -11 -17 -15
-5 -11 9 4 17 2 17 -3 0 -6 -5 -10 -11 -10 -5 0 -7 -5 -4 -10 3 -6 1 -10 -6
-10 -8 0 -8 -4 1 -15 11 -13 10 -14 -2 -10 -22 9 -31 -22 -10 -35 14 -10 15
-11 1 -7 -18 6 -44 -37 -34 -54 4 -5 1 -9 -5 -9 -6 0 -8 -4 -5 -10 3 -5 0 -10
-7 -11 -7 0 -4 -4 7 -9 19 -8 19 -9 1 -9 -13 -1 -17 -6 -13 -21 3 -11 1 -18
-4 -14 -5 3 -9 0 -9 -6 0 -6 -4 -9 -9 -6 -5 4 -7 -2 -4 -13 3 -11 -2 -21 -12
-25 -14 -5 -15 -9 -6 -20 9 -11 9 -16 0 -22 -8 -5 -9 -3 -4 6 5 9 4 11 -3 6
-9 -5 -9 -13 -2 -26 8 -16 7 -18 -4 -14 -8 3 -17 0 -22 -7 -4 -8 -3 -10 4 -5
8 5 10 2 6 -8 -3 -9 -10 -13 -15 -10 -5 3 -6 -2 -3 -10 3 -9 1 -16 -6 -16 -6
0 -8 -4 -5 -10 3 -5 1 -10 -6 -10 -8 0 -8 -4 1 -15 11 -13 10 -14 -6 -9 -10 4
-16 4 -12 -1 4 -4 -3 -16 -15 -27 l-22 -19 25 11 c23 10 23 9 -5 -16 -16 -14
-24 -23 -17 -19 11 6 11 3 0 -14 -7 -12 -17 -21 -22 -21 -4 0 -6 -9 -3 -21 5
-17 3 -18 -11 -7 -12 10 -14 10 -8 1 4 -8 2 -13 -4 -13 -6 0 -8 -5 -5 -10 3
-6 -1 -13 -10 -16 -13 -5 -13 -9 -3 -22 10 -12 10 -14 1 -8 -7 4 -21 2 -30 -3
-10 -6 -12 -11 -5 -11 6 0 12 -5 12 -11 0 -6 -6 -9 -14 -6 -8 3 -17 -1 -20 -9
-3 -8 -1 -14 5 -14 6 0 7 -5 4 -10 -5 -8 -12 -7 -22 2 -14 12 -15 11 -3 -8 7
-11 19 -21 26 -22 8 -1 21 -3 29 -4 11 -1 12 -5 4 -14 -8 -9 -5 -11 12 -7 15
4 20 3 15 -5 -5 -8 1 -12 14 -12 14 0 19 -4 14 -12 -4 -7 -4 -10 1 -6 4 4 15
3 22 -4 11 -9 17 -9 24 3 7 12 9 12 10 -1 1 -8 1 -18 1 -21 -1 -3 5 -6 13 -6
8 0 12 5 9 11 -3 6 1 3 9 -7 11 -14 16 -15 20 -5 4 10 6 10 6 1 1 -7 8 -13 16
-13 8 0 15 -4 15 -10 0 -5 5 -10 11 -10 5 0 7 5 4 10 -9 15 4 12 20 -4 8 -7
11 -17 7 -22 -4 -5 1 -2 10 5 16 12 22 9 19 -11 0 -4 6 -5 14 -2 9 4 23 0 32
-7 14 -12 16 -12 8 1 -6 11 -3 10 12 -3 11 -9 23 -14 26 -10 4 3 7 1 7 -7 0
-10 4 -10 17 1 11 10 14 10 9 2 -6 -12 5 -18 27 -14 4 0 7 -4 7 -10 0 -8 6 -7
17 2 14 12 16 12 8 0 -6 -11 -4 -13 8 -8 9 3 19 1 23 -5 5 -7 2 -8 -6 -3 -9 5
-11 4 -6 -3 5 -9 13 -9 28 -1 11 6 18 7 15 2 -3 -5 3 -15 15 -22 11 -7 17 -8
13 -2 -3 6 1 11 10 11 9 0 13 -5 10 -11 -4 -6 0 -9 11 -7 11 2 18 -2 17 -8 -1
-5 12 -9 28 -8 16 1 29 -1 29 -5 0 -4 13 -6 30 -5 16 1 27 -2 24 -7 -3 -5 4
-9 16 -9 13 0 19 -4 14 -11 -4 -8 0 -9 15 -4 14 4 21 2 21 -7 0 -10 3 -9 10 2
5 8 10 10 10 3 0 -6 9 -9 20 -6 11 3 20 0 20 -6 0 -6 9 -11 19 -11 11 0 23 -5
27 -11 4 -8 9 -7 15 2 8 11 12 10 24 -5 8 -11 15 -14 15 -7 0 7 5 9 10 6 6 -4
8 -10 6 -14 -3 -4 1 -8 9 -8 8 0 11 5 8 11 -4 6 4 2 17 -9 15 -13 21 -15 16
-5 -4 8 -1 7 7 -3 11 -14 16 -15 20 -5 4 10 6 10 6 1 1 -7 12 -13 25 -13 13 0
27 -6 29 -12 4 -10 6 -10 6 0 2 20 21 14 31 -10 7 -18 9 -19 9 -5 1 9 6 17 11
17 6 0 10 -8 10 -17 0 -15 2 -16 10 -3 6 9 10 10 10 3 0 -6 15 -13 33 -15 20
-2 31 -8 29 -16 -1 -8 2 -11 8 -7 6 3 8 10 5 15 -3 4 3 7 12 5 10 -2 22 -4 26
-4 5 -1 5 -7 1 -14 -5 -8 -2 -8 9 2 9 7 17 9 17 4 0 -6 12 -8 26 -5 19 3 25 1
20 -7 -9 -14 36 -11 46 4 5 6 8 3 8 -7 0 -14 4 -16 25 -8 20 8 23 7 19 -8 -5
-14 -3 -13 10 2 15 19 16 19 16 1 0 -10 3 -15 7 -12 3 4 12 2 20 -5 11 -9 12
-7 7 7 -7 16 -5 16 22 -1 15 -11 25 -13 21 -7 -6 10 0 11 24 6 25 -5 30 -3 24
7 -5 9 -4 11 4 6 6 -4 9 -11 6 -16 -3 -4 4 -10 15 -13 10 -3 22 0 25 7 3 8 7
8 11 -2 3 -6 10 -12 15 -12 6 0 8 4 5 8 -2 4 6 8 20 8 17 0 23 -4 19 -14 -4
-12 -3 -13 10 -2 8 7 15 9 15 5 0 -4 8 -1 17 6 9 8 14 10 11 4 -3 -5 1 -17 10
-25 14 -13 15 -12 10 2 -5 13 1 15 31 13 21 -1 43 -5 50 -9 6 -4 11 -3 11 2 0
13 36 8 54 -7 14 -12 16 -12 11 1 -8 20 33 17 46 -3 7 -12 9 -12 9 1 0 12 17
15 100 13 55 -1 104 -4 109 -7 5 -4 11 -1 13 5 2 5 16 12 30 13 15 2 25 -1 22
-6 -3 -5 2 -8 12 -6 12 2 18 -2 16 -10 -1 -8 2 -11 8 -7 6 3 8 10 5 15 -3 5
-1 11 5 15 5 3 10 1 10 -6 0 -8 5 -7 17 2 14 12 15 12 9 1 -7 -11 -4 -12 13
-3 16 9 21 9 21 -1 0 -6 7 -3 15 8 8 11 15 14 15 7 0 -7 5 -13 11 -13 5 0 7 6
3 13 -5 9 -4 9 6 0 10 -9 20 -9 47 2 29 12 33 12 33 -2 0 -11 5 -9 20 8 14 17
18 19 14 6 -5 -14 -2 -16 12 -10 11 4 24 13 30 21 9 12 13 13 19 2 6 -9 4 -11
-5 -5 -9 5 -11 4 -6 -4 4 -6 13 -8 19 -4 7 4 17 8 22 9 6 0 16 2 23 2 7 1 10
7 6 13 -5 8 -1 8 14 0 16 -9 24 -8 36 5 12 12 16 12 16 2 0 -8 3 -9 8 -3 4 6
18 12 32 13 14 2 31 9 39 15 11 9 13 9 8 0 -8 -13 18 -12 30 2 4 4 2 5 -6 0
-10 -6 -12 -4 -7 4 6 9 11 9 21 1 9 -8 17 -6 29 6 9 9 25 14 36 11 11 -3 18
-1 14 4 -3 5 7 9 21 9 17 0 24 4 19 12 -4 7 -3 8 5 4 6 -4 18 -3 25 3 7 6 25
12 39 13 14 1 23 6 21 10 -3 5 -10 6 -15 2 -14 -8 -50 26 -43 40 3 6 -1 3 -9
-6 -10 -12 -17 -14 -24 -7 -6 6 -27 12 -47 13 -20 2 -39 6 -44 11 -4 4 -1 5 7
0 10 -6 12 -4 7 4 -6 9 -11 9 -24 -1 -9 -7 -13 -8 -9 -2 3 6 -10 18 -31 28
-29 13 -33 13 -18 1 23 -17 14 -20 -15 -4 -11 6 -17 15 -12 22 4 7 -2 5 -12
-3 -11 -9 -16 -10 -11 -2 6 11 -5 17 -26 13 -5 0 -8 4 -8 10 0 5 -4 8 -9 5 -5
-3 -12 1 -15 10 -3 9 -13 14 -20 11 -19 -7 -40 18 -30 35 4 7 4 10 0 6 -12
-10 -66 12 -66 28 0 8 -5 14 -11 14 -5 0 -7 5 -4 10 3 5 -1 10 -9 10 -9 0 -16
7 -16 16 0 11 -5 14 -17 10 -10 -4 -14 -4 -11 0 11 10 -12 45 -24 38 -7 -5 -9
-1 -5 9 4 11 1 17 -8 17 -8 0 -15 7 -15 15 0 9 -12 28 -27 42 -16 15 -22 23
-15 19 6 -4 12 -2 12 3 0 6 -8 11 -17 11 -15 0 -16 2 -3 10 12 8 12 10 1 10
-8 0 -11 7 -8 19 3 13 0 18 -7 15 -7 -3 -13 2 -13 11 0 8 4 15 9 15 5 0 7 4 3
10 -3 5 -11 8 -18 6 -7 -1 -9 -1 -4 1 4 3 7 14 7 24 0 13 -4 18 -12 13 -7 -5
-8 -3 -2 7 13 21 14 39 2 39 -7 0 -7 4 0 13 12 14 11 35 -3 57 -14 22 -15 39
-1 34 6 -2 12 5 13 16 1 13 -2 18 -10 13 -9 -5 -9 -3 -1 8 6 8 10 24 9 37 -1
12 2 22 7 22 4 0 8 5 8 11 0 5 -6 7 -12 4 -7 -4 -4 1 6 9 15 12 16 16 5 16 -8
0 -10 3 -4 8 13 9 18 30 16 65 -1 15 4 27 9 27 6 0 8 -5 4 -12 -4 -6 -3 -8 4
-5 5 4 9 15 8 25 -2 9 4 22 13 29 15 11 17 15 20 49 0 8 6 12 11 9 10 -6 15 9
10 30 -1 6 1 7 5 3 11 -10 42 25 37 42 -3 8 -2 12 2 9 4 -4 28 14 53 40 26 25
43 41 40 34 -4 -6 -3 -15 3 -18 6 -4 10 -3 9 2 -4 22 2 35 15 30 15 -6 50 26
40 36 -4 4 3 5 15 2 12 -2 21 1 21 8 0 17 31 35 54 31 11 -1 26 5 34 14 7 9
11 11 7 5 -3 -7 -1 -13 5 -13 6 0 13 7 17 16 3 9 8 11 12 6 4 -6 20 -3 43 8
27 13 40 15 49 6 9 -8 10 -8 6 0 -10 18 31 24 47 8 10 -10 16 -10 18 -2 2 6
28 12 60 12 48 1 55 -1 45 -13 -9 -12 -7 -11 11 1 13 9 32 13 44 10 11 -3 24
1 30 9 8 11 9 10 4 -4 -5 -15 -2 -17 15 -12 13 4 27 1 39 -10 17 -15 19 -15
29 2 6 10 11 13 11 7 0 -7 7 -15 16 -18 10 -4 13 -2 8 7 -5 9 -4 9 6 0 7 -6
18 -9 25 -7 7 3 16 0 21 -7 5 -8 3 -10 -6 -4 -8 5 -11 4 -7 -2 4 -6 19 -8 33
-5 19 3 25 1 20 -7 -5 -7 0 -11 13 -11 12 0 30 -8 41 -17 11 -10 26 -18 33
-18 7 -1 11 -7 9 -15 -2 -10 0 -11 10 -3 9 8 19 4 35 -12 12 -13 19 -26 15
-30 -3 -3 1 -3 11 1 12 4 17 1 17 -10 0 -9 7 -16 15 -16 9 0 19 -8 22 -17 4
-10 15 -25 25 -34 10 -9 18 -24 18 -33 0 -11 4 -14 13 -10 7 5 6 0 -3 -11 -9
-11 -10 -16 -2 -11 7 4 12 2 12 -4 0 -6 4 -9 8 -6 4 2 9 -4 9 -15 1 -13 -2
-17 -10 -12 -7 4 -6 0 2 -10 15 -19 26 -23 15 -5 -4 7 -3 8 5 4 6 -4 9 -11 6
-16 -3 -5 -1 -19 5 -30 9 -17 8 -19 -7 -14 -10 3 -7 -1 6 -9 18 -11 20 -16 10
-20 -12 -4 -12 -6 0 -6 10 -1 11 -4 2 -14 -8 -10 -6 -19 10 -35 18 -20 18 -22
2 -23 -11 0 -13 -3 -5 -6 6 -2 10 -9 6 -14 -3 -5 0 -9 5 -9 6 0 11 -5 11 -11
0 -5 -4 -8 -8 -5 -5 3 -9 -1 -9 -9 0 -8 6 -17 14 -19 11 -5 11 -10 -3 -31 -15
-24 -15 -25 2 -25 17 0 16 -1 -2 -15 -11 -8 -14 -14 -6 -15 9 0 10 -5 3 -18
-7 -13 -6 -23 2 -32 9 -10 9 -11 -1 -6 -10 6 -12 -1 -9 -33 2 -23 1 -41 -3
-41 -4 0 -6 -11 -5 -25 2 -14 -1 -25 -7 -25 -7 0 -6 -5 1 -14 9 -11 8 -17 -3
-29 -8 -8 -12 -17 -9 -21 4 -3 1 -6 -5 -6 -13 0 -12 -27 1 -47 6 -9 3 -11 -9
-6 -14 5 -15 3 -4 -17 7 -12 7 -20 2 -16 -6 3 -13 3 -16 -2 -7 -12 36 -13 50
-1 7 5 18 8 25 7 8 -2 13 3 11 11 -3 12 -1 12 14 0 10 -8 15 -9 11 -2 -4 7 1
14 13 18 11 4 18 10 15 15 -3 5 4 7 15 5 11 -2 18 0 15 4 -2 5 5 11 16 14 14
4 18 10 13 19 -6 10 -3 9 10 -1 9 -8 16 -10 15 -5 -3 19 1 34 10 34 6 0 22 11
37 25 14 13 30 22 35 19 5 -3 6 3 2 12 -4 11 -2 15 4 11 5 -3 23 7 38 23 15
16 32 27 37 24 5 -3 8 -2 7 3 -3 19 14 52 24 46 6 -4 8 0 4 10 -4 11 -1 17 9
17 8 0 12 4 9 10 -3 6 -1 10 4 10 6 0 11 7 11 15 0 8 7 15 15 15 8 0 15 5 15
11 0 5 -6 7 -12 3 -9 -6 -9 -3 0 9 8 9 19 15 25 14 6 -1 11 7 11 18 0 11 6 25
14 30 7 6 14 21 15 34 1 12 10 27 21 33 15 8 16 12 5 19 -11 7 -11 9 2 9 11 0
15 8 13 26 -1 14 3 27 11 30 8 3 12 11 9 19 -3 7 2 20 11 29 9 9 13 16 9 16
-3 0 0 8 7 17 10 11 10 14 2 9 -20 -12 -15 1 10 25 12 12 16 19 10 15 -16 -9
-16 -1 -2 26 9 16 8 23 -2 29 -11 7 -10 9 3 9 12 0 15 5 11 16 -4 10 1 22 11
29 14 11 15 13 1 18 -8 4 -12 13 -9 22 3 8 10 13 14 10 5 -3 7 6 4 19 -2 14 1
28 6 31 8 5 7 12 -2 23 -11 14 -10 15 6 9 15 -6 17 -5 8 6 -9 10 -8 17 1 26 9
10 8 11 -8 5 -18 -7 -18 -6 -7 9 8 9 11 21 7 27 -3 5 -1 10 6 10 8 0 7 5 -2
17 -8 9 -9 14 -4 11 13 -8 13 151 0 172 -8 13 -7 13 8 1 16 -12 17 -12 11 5
-4 10 -12 25 -18 33 -8 11 -8 13 2 7 6 -4 12 -3 12 1 0 5 -6 15 -12 22 -10 11
-10 13 0 7 6 -4 12 -2 12 3 0 6 -6 11 -12 11 -9 0 -8 4 2 10 13 9 13 11 0 20
-10 6 -11 10 -3 10 7 0 10 7 7 15 -4 8 -11 12 -18 8 -6 -4 -5 1 3 11 13 15 13
19 0 27 -12 7 -12 9 1 9 11 0 11 3 2 12 -19 19 -14 32 6 17 14 -11 13 -10 -2
9 -14 17 -16 22 -5 22 9 0 10 3 3 8 -13 9 -27 45 -15 38 5 -4 7 3 4 14 -3 11
-10 17 -15 14 -6 -4 -5 3 2 15 7 14 8 27 2 34 -5 7 -12 21 -16 31 -5 16 -4 17
9 6 14 -11 14 -10 1 15 -8 16 -13 32 -10 37 3 4 -1 8 -8 8 -9 0 -9 3 2 10 12
8 12 10 -5 10 -17 0 -17 2 -5 10 13 9 13 10 0 10 -13 0 -13 1 0 10 12 8 12 10
1 10 -8 0 -11 7 -8 20 3 13 1 18 -6 13 -6 -4 -8 0 -4 10 3 9 2 19 -3 22 -15 9
-12 27 3 20 6 -4 4 0 -7 9 -10 8 -16 22 -13 31 4 8 2 15 -3 15 -5 0 -6 7 -3
17 5 11 3 14 -6 8 -10 -5 -11 -2 -6 14 4 14 2 21 -7 21 -10 0 -9 3 2 10 13 8
12 10 -5 10 -15 0 -16 3 -7 12 7 7 12 17 12 22 0 6 -5 4 -10 -4 -7 -11 -10
-11 -10 -2 0 7 -4 11 -8 8 -5 -3 -9 1 -9 8 0 8 7 12 16 9 12 -3 12 -2 -1 7
-10 6 -18 18 -18 26 0 9 -5 12 -12 8 -8 -5 -9 -2 -5 9 4 12 1 17 -11 17 -15 0
-15 2 -2 10 13 8 12 10 -3 10 -10 0 -16 4 -13 8 3 5 -4 15 -15 22 -10 8 -19
20 -19 26 0 7 -7 15 -16 18 -9 3 -12 11 -8 18 5 9 2 8 -9 -1 -15 -12 -17 -12
-12 1 4 9 -1 18 -10 22 -9 3 -13 11 -10 17 4 6 1 10 -6 8 -30 -4 -41 2 -35 16
3 8 2 14 -2 13 -15 -5 -71 25 -65 35 4 6 1 7 -6 3 -7 -5 -21 0 -31 9 -10 9
-23 14 -29 10 -7 -4 -8 0 -4 11 4 12 3 15 -6 10 -6 -4 -19 -2 -28 6 -14 11
-16 11 -9 -2 4 -8 1 -7 -7 3 -11 14 -16 15 -20 5 -3 -8 -6 -6 -6 6 -1 12 -6
16 -16 12 -8 -3 -21 2 -30 10 -8 9 -15 11 -15 5 0 -6 -5 -11 -11 -11 -5 0 -7
5 -4 10 5 9 -23 15 -47 11 -5 0 -8 4 -8 9 0 7 -6 7 -19 1 -15 -8 -22 -6 -35
12 -9 12 -14 17 -11 10 3 -7 -2 -11 -14 -10 -11 0 -17 5 -14 11 4 5 -1 7 -9 3
-9 -3 -21 0 -28 6 -10 9 -11 9 -6 0 4 -7 2 -13 -3 -13 -6 0 -11 4 -11 9 0 4
-14 7 -31 5 -20 -3 -28 0 -23 8 5 7 3 8 -7 2 -24 -15 -33 -12 -52 12 -10 13
-13 24 -7 24 6 0 8 5 4 12 -5 8 -2 9 11 4 14 -5 15 -3 7 6 -11 15 10 42 24 30
4 -4 4 2 0 13 -4 11 -4 17 -1 13 8 -8 43 20 57 46 8 14 7 17 -3 11 -8 -6 -10
-4 -4 4 4 7 21 21 39 32 17 10 25 19 19 19 -7 0 -13 5 -13 10 0 6 10 10 23 10
18 0 19 2 7 10 -13 8 -12 10 3 10 10 0 16 4 13 9 -8 13 21 34 35 26 8 -6 8 -2
0 14 -9 17 -9 21 1 19 7 -2 12 5 12 15 -2 13 1 15 11 7 9 -8 14 -6 19 5 4 11
2 14 -6 9 -7 -5 -8 -3 -4 5 5 7 15 10 23 7 8 -3 11 -1 8 4 -8 12 19 53 28 43
4 -3 7 1 7 9 0 9 10 23 23 32 12 9 15 14 7 10 -13 -7 -13 -5 -1 9 7 9 17 14
22 12 4 -3 6 4 4 16 -4 18 -2 19 11 8 8 -7 14 -8 13 -3 -4 20 2 35 11 29 6 -4
7 1 3 11 -5 13 -3 15 7 9 10 -6 12 -4 6 10 -5 15 -4 16 9 5 9 -7 15 -9 14 -4
-4 20 2 35 11 29 6 -3 7 1 4 9 -4 9 -1 16 6 16 7 0 10 7 7 14 -4 11 -1 13 10
9 13 -5 15 -2 10 16 -4 18 -3 20 9 10 11 -9 14 -8 14 5 0 9 5 16 11 16 5 0 8
3 6 8 -6 10 30 42 39 34 4 -4 4 -2 1 5 -4 6 0 18 8 27 8 8 14 21 13 28 -2 8 4
12 15 10 9 -2 16 1 15 7 -2 5 6 17 17 26 11 9 14 13 6 9 -10 -5 -12 -3 -7 5 5
7 15 10 23 6 14 -5 14 -3 2 12 -7 10 -10 15 -5 11 10 -8 41 20 32 29 -9 10 35
43 48 36 6 -4 5 1 -3 10 -9 12 -10 17 -2 17 7 0 9 5 6 10 -4 6 -11 7 -17 4 -6
-4 -6 1 1 14 9 17 8 19 -9 15 -11 -3 -20 0 -20 6 0 6 -6 10 -12 9 -7 -2 -12 3
-10 11 3 12 1 12 -14 0 -10 -8 -15 -9 -12 -4 7 11 -10 28 -32 33 -8 2 -17 8
-18 13 -2 5 -8 7 -13 4 -5 -4 -21 6 -36 22 -16 15 -34 26 -40 25 -7 -2 -13 2
-13 8 0 5 -7 10 -16 10 -9 0 -12 5 -8 12 4 7 3 8 -5 4 -6 -4 -14 -1 -17 8 -3
8 -12 12 -20 9 -7 -3 -17 2 -20 11 -3 9 -14 16 -24 16 -21 0 -43 23 -32 36 4
4 -1 2 -10 -5 -10 -7 -19 -11 -19 -7 -1 3 -2 10 -3 15 0 5 -5 13 -10 18 -5 5
-6 3 -2 -4 4 -7 2 -13 -3 -13 -6 0 -11 3 -11 8 0 4 -12 16 -27 26 -14 11 -23
14 -19 8 3 -6 2 -13 -4 -17 -5 -3 -10 3 -10 15 0 12 -4 19 -9 15 -6 -3 -14 3
-20 12 -9 16 -10 16 -11 1z m-233 -803 c0 -8 -4 -12 -9 -9 -5 3 -6 10 -3 15 9
13 12 11 12 -6z m118 -386 c-4 -5 -12 -9 -18 -8 -9 0 -8 2 1 6 6 2 9 10 6 15
-4 7 -2 8 5 4 6 -4 9 -12 6 -17z m-76 -152 c0 -9 -2 -9 -6 1 -2 6 -11 12 -19
12 -8 0 -14 5 -14 10 0 7 6 7 20 0 11 -6 20 -16 19 -23z m-169 -1497 c0 -5 -2
-10 -4 -10 -3 0 -8 5 -11 10 -3 6 -1 10 4 10 6 0 11 -4 11 -10z m220 -70 c0
-5 -2 -10 -4 -10 -3 0 -8 5 -11 10 -3 6 -1 10 4 10 6 0 11 -4 11 -10z m-830
-34 c0 -3 -4 -8 -10 -11 -5 -3 -10 -1 -10 4 0 6 5 11 10 11 6 0 10 -2 10 -4z
m-225 -225 c3 -5 2 -12 -3 -15 -5 -3 -9 1 -9 9 0 17 3 19 12 6z m1326 -138
c13 -16 12 -17 -3 -4 -10 7 -18 15 -18 17 0 8 8 3 21 -13z m329 -266 c0 -2
-10 -12 -22 -23 l-23 -19 19 23 c18 21 26 27 26 19z"/>
<path d="M4589 3533 c-12 -16 -12 -17 2 -6 9 7 20 9 24 5 5 -4 5 -1 1 6 -9 16
-11 15 -27 -5z"/>
</g>
</svg>
